<svg xmlns="http://www.w3.org/2000/svg" width="531.934" height="531.761" viewBox="0 0 531.934 531.761">
  <g id="noun-home-5496588" transform="translate(-70.063 -42.184)">
    <path id="Path_3" data-name="Path 3" d="M180.48,163.95l54.738-49.414V42.184H180.48v121.77ZM98,274.3h65.156a13.348,13.348,0,0,1,13.34,13.34V517.81h94.77V389.2a78.739,78.739,0,0,1,157.477,0v128.61H523.5V287.641a13.348,13.348,0,0,1,13.34-13.34H602L350,46.781Q224,160.541,98,274.3Z" fill="#fff"/>
    <g id="Group_1" data-name="Group 1" transform="translate(70 569.922)">
      <path id="Path_4" data-name="Path 4" d="M2.219-.125A1.958,1.958,0,0,1,1.859,0a1.62,1.62,0,0,1-.391.047A1.352,1.352,0,0,1,.516-.281,1.235,1.235,0,0,1,.172-1.2a1.192,1.192,0,0,1,.344-.906,1.326,1.326,0,0,1,.953-.344,1.62,1.62,0,0,1,.391.047,1.23,1.23,0,0,1,.359.125v.5a1.4,1.4,0,0,0-.344-.156A1.085,1.085,0,0,0,1.531-2,.664.664,0,0,0,1-1.781.824.824,0,0,0,.813-1.2.88.88,0,0,0,1-.609a.681.681,0,0,0,.531.2,1.324,1.324,0,0,0,.344-.047,1.661,1.661,0,0,0,.344-.172Z" fill="#fff"/>
    </g>
    <g id="Group_2" data-name="Group 2" transform="translate(72.426 569.922)">
      <path id="Path_5" data-name="Path 5" d="M1.625-1.312a.568.568,0,0,0-.156-.062,1.1,1.1,0,0,0-.141-.016.439.439,0,0,0-.359.156.645.645,0,0,0-.109.406V0H.281V-1.813H.859v.3a.727.727,0,0,1,.25-.25.649.649,0,0,1,.344-.094.209.209,0,0,1,.063.016h.109Z" fill="#fff"/>
    </g>
    <g id="Group_3" data-name="Group 3" transform="translate(74.059 569.922)">
      <path id="Path_6" data-name="Path 6" d="M2.094-.906V-.75H.734a.414.414,0,0,0,.141.313.588.588,0,0,0,.359.094,1.541,1.541,0,0,0,.375-.047A2.211,2.211,0,0,0,2-.563v.453A1.8,1.8,0,0,1,1.594,0a1.887,1.887,0,0,1-.422.047A1.1,1.1,0,0,1,.406-.2a.9.9,0,0,1-.266-.7.9.9,0,0,1,.266-.687,1,1,0,0,1,.734-.266.909.909,0,0,1,.688.266.909.909,0,0,1,.266.688Zm-.609-.2a.342.342,0,0,0-.094-.25.325.325,0,0,0-.25-.109.408.408,0,0,0-.281.094.484.484,0,0,0-.125.266Z" fill="#fff"/>
    </g>
    <g id="Group_4" data-name="Group 4" transform="translate(76.301 569.922)">
      <path id="Path_7" data-name="Path 7" d="M1.094-.812A.535.535,0,0,0,.813-.75a.2.2,0,0,0-.094.172A.2.2,0,0,0,.8-.406.3.3,0,0,0,1-.344a.38.38,0,0,0,.281-.109.442.442,0,0,0,.109-.3V-.812Zm.875-.219V0H1.391V-.266a.718.718,0,0,1-.266.234A.721.721,0,0,1,.781.047.7.7,0,0,1,.313-.109.577.577,0,0,1,.141-.547.494.494,0,0,1,.359-1a1.215,1.215,0,0,1,.688-.156h.344V-1.2a.222.222,0,0,0-.109-.2.757.757,0,0,0-.344-.062,1.28,1.28,0,0,0-.344.047,1.756,1.756,0,0,0-.3.094v-.437a2.5,2.5,0,0,1,.375-.062,2.429,2.429,0,0,1,.375-.031.994.994,0,0,1,.7.2.792.792,0,0,1,.219.625Z" fill="#fff"/>
    </g>
    <g id="Group_5" data-name="Group 5" transform="translate(78.531 569.922)">
      <path id="Path_8" data-name="Path 8" d="M.906-2.328v.516H1.5v.422H.906v.766a.238.238,0,0,0,.047.172.438.438,0,0,0,.2.031h.3V0h-.5A.7.7,0,0,1,.469-.141.671.671,0,0,1,.328-.625v-.766H.047v-.422H.328v-.516Z" fill="#fff"/>
    </g>
    <g id="Group_6" data-name="Group 6" transform="translate(80.113 569.922)">
      <path id="Path_9" data-name="Path 9" d="M2.094-.906V-.75H.734a.414.414,0,0,0,.141.313.588.588,0,0,0,.359.094,1.541,1.541,0,0,0,.375-.047A2.211,2.211,0,0,0,2-.563v.453A1.8,1.8,0,0,1,1.594,0a1.887,1.887,0,0,1-.422.047A1.1,1.1,0,0,1,.406-.2a.9.9,0,0,1-.266-.7.9.9,0,0,1,.266-.687,1,1,0,0,1,.734-.266.909.909,0,0,1,.688.266.909.909,0,0,1,.266.688Zm-.609-.2a.342.342,0,0,0-.094-.25.325.325,0,0,0-.25-.109.408.408,0,0,0-.281.094.484.484,0,0,0-.125.266Z" fill="#fff"/>
    </g>
    <g id="Group_7" data-name="Group 7" transform="translate(82.355 569.922)">
      <path id="Path_10" data-name="Path 10" d="M1.516-1.547v-.969h.578V0H1.516V-.266a.911.911,0,0,1-.266.234A.721.721,0,0,1,.906.047.671.671,0,0,1,.359-.219a1.09,1.09,0,0,1-.2-.687,1.1,1.1,0,0,1,.2-.687.682.682,0,0,1,.547-.266.679.679,0,0,1,.328.078A.978.978,0,0,1,1.516-1.547ZM1.125-.375A.323.323,0,0,0,1.406-.5a.663.663,0,0,0,.109-.406A.644.644,0,0,0,1.406-1.3a.315.315,0,0,0-.281-.141A.315.315,0,0,0,.844-1.3.7.7,0,0,0,.75-.906.726.726,0,0,0,.844-.5.323.323,0,0,0,1.125-.375Z" fill="#fff"/>
    </g>
    <g id="Group_8" data-name="Group 8" transform="translate(85.875 569.922)">
      <path id="Path_11" data-name="Path 11" d="M1.25-.375A.308.308,0,0,0,1.516-.5a.663.663,0,0,0,.109-.406A.644.644,0,0,0,1.516-1.3a.3.3,0,0,0-.266-.141.353.353,0,0,0-.3.141.7.7,0,0,0-.094.391A.726.726,0,0,0,.953-.5.363.363,0,0,0,1.25-.375ZM.859-1.547a.981.981,0,0,1,.266-.234.679.679,0,0,1,.328-.078A.661.661,0,0,1,2-1.594a1.058,1.058,0,0,1,.219.688A1.051,1.051,0,0,1,2-.219a.651.651,0,0,1-.547.266.679.679,0,0,1-.328-.078A.864.864,0,0,1,.859-.266V0H.281V-2.516H.859Z" fill="#fff"/>
    </g>
    <g id="Group_9" data-name="Group 9" transform="translate(88.242 569.922)">
      <path id="Path_12" data-name="Path 12" d="M.047-1.812H.625L1.109-.578l.406-1.234h.578L1.344.172a1.16,1.16,0,0,1-.281.422A.579.579,0,0,1,.672.719H.328V.328H.516a.346.346,0,0,0,.2-.047A.278.278,0,0,0,.828.125L.844.063Z" fill="#fff"/>
    </g>
    <g id="Group_10" data-name="Group 10" transform="translate(91.551 569.922)">
      <path id="Path_13" data-name="Path 13" d="M.3-2.422H.922V0H.3Z" fill="#fff"/>
    </g>
    <g id="Group_11" data-name="Group 11" transform="translate(92.781 569.922)">
      <path id="Path_14" data-name="Path 14" d="M1.688-1.75v.438a2.069,2.069,0,0,0-.359-.109A1.278,1.278,0,0,0,1-1.469a.458.458,0,0,0-.234.047A.121.121,0,0,0,.687-1.3a.148.148,0,0,0,.047.109.553.553,0,0,0,.219.047l.109.016a1.361,1.361,0,0,1,.594.188.5.5,0,0,1,.156.406.507.507,0,0,1-.219.438A1.112,1.112,0,0,1,.969.047,2.429,2.429,0,0,1,.594.016C.469,0,.336-.031.2-.063V-.5a1.913,1.913,0,0,0,.344.125,2.025,2.025,0,0,0,.375.031.516.516,0,0,0,.25-.047.15.15,0,0,0,.094-.141A.12.12,0,0,0,1.2-.641,1.308,1.308,0,0,0,.969-.7L.875-.719A1.078,1.078,0,0,1,.328-.891.484.484,0,0,1,.172-1.3a.494.494,0,0,1,.188-.422,1.064,1.064,0,0,1,.609-.141,2.083,2.083,0,0,1,.344.031,2.222,2.222,0,0,1,.375.078Z" fill="#fff"/>
    </g>
    <g id="Group_12" data-name="Group 12" transform="translate(94.75 569.922)">
      <path id="Path_15" data-name="Path 15" d="M2.094-1.109V0H1.516V-.844A2.389,2.389,0,0,0,1.5-1.156.268.268,0,0,0,1.469-1.3a.269.269,0,0,0-.094-.094.31.31,0,0,0-.125-.031.353.353,0,0,0-.3.141.7.7,0,0,0-.094.391V0H.281V-1.813H.859v.266a.981.981,0,0,1,.266-.234.725.725,0,0,1,.328-.078.581.581,0,0,1,.484.2.852.852,0,0,1,.156.547Z" fill="#fff"/>
    </g>
    <g id="Group_13" data-name="Group 13" transform="translate(97.102 569.922)">
      <path id="Path_16" data-name="Path 16" d="M1.094-.812A.535.535,0,0,0,.813-.75a.2.2,0,0,0-.094.172A.2.2,0,0,0,.8-.406.3.3,0,0,0,1-.344a.38.38,0,0,0,.281-.109.442.442,0,0,0,.109-.3V-.812Zm.875-.219V0H1.391V-.266a.718.718,0,0,1-.266.234A.721.721,0,0,1,.781.047.7.7,0,0,1,.313-.109.577.577,0,0,1,.141-.547.494.494,0,0,1,.359-1a1.215,1.215,0,0,1,.688-.156h.344V-1.2a.222.222,0,0,0-.109-.2.757.757,0,0,0-.344-.062,1.28,1.28,0,0,0-.344.047,1.756,1.756,0,0,0-.3.094v-.437a2.5,2.5,0,0,1,.375-.062,2.429,2.429,0,0,1,.375-.031.994.994,0,0,1,.7.2.792.792,0,0,1,.219.625Z" fill="#fff"/>
    </g>
    <g id="Group_14" data-name="Group 14" transform="translate(99.336 569.922)">
      <path id="Path_17" data-name="Path 17" d="M.281-1.812H.859V0H.281Zm0-.7H.859v.469H.281Z" fill="#fff"/>
    </g>
    <g id="Group_15" data-name="Group 15" transform="translate(100.469 569.922)">
      <path id="Path_18" data-name="Path 18" d="M2.094-1.109V0H1.516V-.844A2.389,2.389,0,0,0,1.5-1.156.268.268,0,0,0,1.469-1.3a.269.269,0,0,0-.094-.094.31.31,0,0,0-.125-.031.353.353,0,0,0-.3.141.7.7,0,0,0-.094.391V0H.281V-1.813H.859v.266a.981.981,0,0,1,.266-.234.725.725,0,0,1,.328-.078.581.581,0,0,1,.484.2.852.852,0,0,1,.156.547Z" fill="#fff"/>
    </g>
    <g id="Group_16" data-name="Group 16" transform="translate(102.824 569.922)">
      <path id="Path_19" data-name="Path 19" d="M.281-1.812H.859V0H.281Zm0-.7H.859v.469H.281Z" fill="#fff"/>
    </g>
    <g id="Group_17" data-name="Group 17" transform="translate(70 573.227)">
      <path id="Path_20" data-name="Path 20" d="M1.469-2.516v.375H1.156a.238.238,0,0,0-.172.047.22.22,0,0,0-.047.156v.125h.484v.422H.938V0H.344V-1.391H.063v-.422H.344v-.125a.528.528,0,0,1,.172-.437.8.8,0,0,1,.516-.141Z" fill="#fff"/>
    </g>
    <g id="Group_18" data-name="Group 18" transform="translate(71.438 573.227)">
      <path id="Path_21" data-name="Path 21" d="M1.625-1.312a.568.568,0,0,0-.156-.062,1.1,1.1,0,0,0-.141-.016.439.439,0,0,0-.359.156.645.645,0,0,0-.109.406V0H.281V-1.813H.859v.3a.727.727,0,0,1,.25-.25.649.649,0,0,1,.344-.094.209.209,0,0,1,.063.016h.109Z" fill="#fff"/>
    </g>
    <g id="Group_19" data-name="Group 19" transform="translate(73.07 573.227)">
      <path id="Path_22" data-name="Path 22" d="M1.141-1.437a.353.353,0,0,0-.3.141A.662.662,0,0,0,.75-.906.726.726,0,0,0,.844-.5a.353.353,0,0,0,.3.141A.315.315,0,0,0,1.422-.5a.663.663,0,0,0,.109-.406A.605.605,0,0,0,1.422-1.3.315.315,0,0,0,1.141-1.437Zm0-.422a1,1,0,0,1,.734.266.909.909,0,0,1,.266.687.916.916,0,0,1-.266.7,1.027,1.027,0,0,1-.734.25A1.021,1.021,0,0,1,.406-.2a.9.9,0,0,1-.266-.7.9.9,0,0,1,.266-.687A1,1,0,0,1,1.141-1.859Z" fill="#fff"/>
    </g>
    <g id="Group_20" data-name="Group 20" transform="translate(75.34 573.227)">
      <path id="Path_23" data-name="Path 23" d="M1.953-1.516a.854.854,0,0,1,.266-.25.615.615,0,0,1,.328-.094.565.565,0,0,1,.469.2.791.791,0,0,1,.172.547V0H2.609V-1.047a.5.5,0,0,0-.062-.281.176.176,0,0,0-.172-.094.3.3,0,0,0-.266.141.87.87,0,0,0-.094.391V0H1.437V-.937a.977.977,0,0,0-.047-.391A.189.189,0,0,0,1.2-1.422a.3.3,0,0,0-.266.141.788.788,0,0,0-.078.391V0H.281V-1.812H.859v.266a.835.835,0,0,1,.234-.234.639.639,0,0,1,.313-.078.578.578,0,0,1,.328.094.678.678,0,0,1,.219.25Z" fill="#fff"/>
    </g>
    <g id="Group_21" data-name="Group 21" transform="translate(79.938 573.227)">
      <path id="Path_24" data-name="Path 24" d="M.906-2.328v.516H1.5v.422H.906v.766a.238.238,0,0,0,.047.172.438.438,0,0,0,.2.031h.3V0h-.5A.7.7,0,0,1,.469-.141.671.671,0,0,1,.328-.625v-.766H.047v-.422H.328v-.516Z" fill="#fff"/>
    </g>
    <g id="Group_22" data-name="Group 22" transform="translate(81.52 573.227)">
      <path id="Path_25" data-name="Path 25" d="M2.094-1.109V0H1.516V-.844A2.389,2.389,0,0,0,1.5-1.156.268.268,0,0,0,1.469-1.3a.269.269,0,0,0-.094-.094.31.31,0,0,0-.125-.031.353.353,0,0,0-.3.141.7.7,0,0,0-.094.391V0H.281V-2.516H.859v.969a.981.981,0,0,1,.266-.234.725.725,0,0,1,.328-.078.581.581,0,0,1,.484.2.852.852,0,0,1,.156.547Z" fill="#fff"/>
    </g>
    <g id="Group_23" data-name="Group 23" transform="translate(83.875 573.227)">
      <path id="Path_26" data-name="Path 26" d="M2.094-.906V-.75H.734a.414.414,0,0,0,.141.313.588.588,0,0,0,.359.094,1.541,1.541,0,0,0,.375-.047A2.211,2.211,0,0,0,2-.563v.453A1.8,1.8,0,0,1,1.594,0a1.887,1.887,0,0,1-.422.047A1.1,1.1,0,0,1,.406-.2a.9.9,0,0,1-.266-.7.9.9,0,0,1,.266-.687,1,1,0,0,1,.734-.266.909.909,0,0,1,.688.266.909.909,0,0,1,.266.688Zm-.609-.2a.342.342,0,0,0-.094-.25.325.325,0,0,0-.25-.109.408.408,0,0,0-.281.094.484.484,0,0,0-.125.266Z" fill="#fff"/>
    </g>
    <g id="Group_24" data-name="Group 24" transform="translate(87.27 573.227)">
      <path id="Path_27" data-name="Path 27" d="M.3-2.422H1L1.875-.766V-2.422h.594V0h-.7L.891-1.656V0H.3Z" fill="#fff"/>
    </g>
    <g id="Group_25" data-name="Group 25" transform="translate(90.035 573.227)">
      <path id="Path_28" data-name="Path 28" d="M1.141-1.437a.353.353,0,0,0-.3.141A.662.662,0,0,0,.75-.906.726.726,0,0,0,.844-.5a.353.353,0,0,0,.3.141A.315.315,0,0,0,1.422-.5a.663.663,0,0,0,.109-.406A.605.605,0,0,0,1.422-1.3.315.315,0,0,0,1.141-1.437Zm0-.422a1,1,0,0,1,.734.266.909.909,0,0,1,.266.687.916.916,0,0,1-.266.7,1.027,1.027,0,0,1-.734.25A1.021,1.021,0,0,1,.406-.2a.9.9,0,0,1-.266-.7.9.9,0,0,1,.266-.687A1,1,0,0,1,1.141-1.859Z" fill="#fff"/>
    </g>
    <g id="Group_26" data-name="Group 26" transform="translate(92.309 573.227)">
      <path id="Path_29" data-name="Path 29" d="M.266-.7V-1.813H.844V-.641a.2.2,0,0,0,.047.125.21.21,0,0,0,.078.094.268.268,0,0,0,.141.031.315.315,0,0,0,.281-.141A.636.636,0,0,0,1.5-.922v-.891h.578V0H1.5V-.266a.867.867,0,0,1-.281.234A.65.65,0,0,1,.906.047.618.618,0,0,1,.422-.141.884.884,0,0,1,.266-.7Z" fill="#fff"/>
    </g>
    <g id="Group_27" data-name="Group 27" transform="translate(94.664 573.227)">
      <path id="Path_30" data-name="Path 30" d="M2.094-1.109V0H1.516V-.844A2.389,2.389,0,0,0,1.5-1.156.268.268,0,0,0,1.469-1.3a.269.269,0,0,0-.094-.094.31.31,0,0,0-.125-.031.353.353,0,0,0-.3.141.7.7,0,0,0-.094.391V0H.281V-1.813H.859v.266a.981.981,0,0,1,.266-.234.725.725,0,0,1,.328-.078.581.581,0,0,1,.484.2.852.852,0,0,1,.156.547Z" fill="#fff"/>
    </g>
    <g id="Group_28" data-name="Group 28" transform="translate(98.168 573.227)">
      <path id="Path_31" data-name="Path 31" d="M.3-2.422H1.344a1.045,1.045,0,0,1,.7.219.712.712,0,0,1,.25.578.706.706,0,0,1-.25.578,1.085,1.085,0,0,1-.7.2H.922V0H.3Zm.625.453V-1.3h.344a.417.417,0,0,0,.281-.078.319.319,0,0,0,.109-.25.325.325,0,0,0-.109-.25.382.382,0,0,0-.281-.094Z" fill="#fff"/>
    </g>
    <g id="Group_29" data-name="Group 29" transform="translate(100.594 573.227)">
      <path id="Path_32" data-name="Path 32" d="M1.625-1.312a.568.568,0,0,0-.156-.062,1.1,1.1,0,0,0-.141-.016.439.439,0,0,0-.359.156.645.645,0,0,0-.109.406V0H.281V-1.813H.859v.3a.727.727,0,0,1,.25-.25.649.649,0,0,1,.344-.094.209.209,0,0,1,.063.016h.109Z" fill="#fff"/>
    </g>
    <g id="Group_30" data-name="Group 30" transform="translate(102.223 573.227)">
      <path id="Path_33" data-name="Path 33" d="M1.141-1.437a.353.353,0,0,0-.3.141A.662.662,0,0,0,.75-.906.726.726,0,0,0,.844-.5a.353.353,0,0,0,.3.141A.315.315,0,0,0,1.422-.5a.663.663,0,0,0,.109-.406A.605.605,0,0,0,1.422-1.3.315.315,0,0,0,1.141-1.437Zm0-.422a1,1,0,0,1,.734.266.909.909,0,0,1,.266.687.916.916,0,0,1-.266.7,1.027,1.027,0,0,1-.734.25A1.021,1.021,0,0,1,.406-.2a.9.9,0,0,1-.266-.7.9.9,0,0,1,.266-.687A1,1,0,0,1,1.141-1.859Z" fill="#fff"/>
    </g>
    <g id="Group_31" data-name="Group 31" transform="translate(104.496 573.227)">
      <path id="Path_34" data-name="Path 34" d="M.281-1.812H.859V-.031A.791.791,0,0,1,.687.516a.653.653,0,0,1-.516.2H-.109V.328h.094A.3.3,0,0,0,.219.25.447.447,0,0,0,.281-.031Zm0-.7H.859v.469H.281Z" fill="#fff"/>
    </g>
    <g id="Group_32" data-name="Group 32" transform="translate(105.629 573.227)">
      <path id="Path_35" data-name="Path 35" d="M2.094-.906V-.75H.734a.414.414,0,0,0,.141.313.588.588,0,0,0,.359.094,1.541,1.541,0,0,0,.375-.047A2.211,2.211,0,0,0,2-.563v.453A1.8,1.8,0,0,1,1.594,0a1.887,1.887,0,0,1-.422.047A1.1,1.1,0,0,1,.406-.2a.9.9,0,0,1-.266-.7.9.9,0,0,1,.266-.687,1,1,0,0,1,.734-.266.909.909,0,0,1,.688.266.909.909,0,0,1,.266.688Zm-.609-.2a.342.342,0,0,0-.094-.25.325.325,0,0,0-.25-.109.408.408,0,0,0-.281.094.484.484,0,0,0-.125.266Z" fill="#fff"/>
    </g>
    <g id="Group_33" data-name="Group 33" transform="translate(107.871 573.227)">
      <path id="Path_36" data-name="Path 36" d="M1.734-1.75v.469A.8.8,0,0,0,1.5-1.391a.6.6,0,0,0-.234-.047A.526.526,0,0,0,.875-1.3.559.559,0,0,0,.75-.906.609.609,0,0,0,.875-.5a.526.526,0,0,0,.391.141.724.724,0,0,0,.25-.047.71.71,0,0,0,.219-.125v.484a1.2,1.2,0,0,1-.266.063,1.379,1.379,0,0,1-.281.031A1.1,1.1,0,0,1,.422-.2a.884.884,0,0,1-.281-.7.9.9,0,0,1,.281-.7,1.122,1.122,0,0,1,.766-.25,1.379,1.379,0,0,1,.281.031.9.9,0,0,1,.266.078Z" fill="#fff"/>
    </g>
    <g id="Group_34" data-name="Group 34" transform="translate(109.832 573.227)">
      <path id="Path_37" data-name="Path 37" d="M.906-2.328v.516H1.5v.422H.906v.766a.238.238,0,0,0,.047.172.438.438,0,0,0,.2.031h.3V0h-.5A.7.7,0,0,1,.469-.141.671.671,0,0,1,.328-.625v-.766H.047v-.422H.328v-.516Z" fill="#fff"/>
    </g>
  </g>
</svg>
