<svg id="noun-profile-5486519_1_" data-name="noun-profile-5486519 (1)" xmlns="http://www.w3.org/2000/svg" width="410.265" height="545.267" viewBox="0 0 410.265 545.267">
  <path id="Path_1" data-name="Path 1" d="M170.532,20.41a117.916,117.916,0,0,1,44.846,26.447,126.824,126.824,0,0,1,29.76,42.988,139.067,139.067,0,0,1,10.927,53.309A148.058,148.058,0,0,1,214,247.186a136.315,136.315,0,0,1-43.475,29.772,124.659,124.659,0,0,1-49.035,10.165,117.389,117.389,0,0,1-48.653-10.571A119.16,119.16,0,0,1,33.349,247.5,128.737,128.737,0,0,1,8.741,206.55,139.838,139.838,0,0,1,0,158.6,148.314,148.314,0,0,1,34.515,62.974,139.192,139.192,0,0,1,72.844,31.153,127.8,127.8,0,0,1,119.71,15.639a118.5,118.5,0,0,1,50.822,4.772" transform="translate(65.542)" fill="#fff"/>
  <path id="Path_2" data-name="Path 2" d="M186.148,3A181.007,181.007,0,0,0,111.194,17.54a176.223,176.223,0,0,0-57.94,40.5,189.137,189.137,0,0,0-38.093,59.477A212.844,212.844,0,0,0,0,191.025a8.153,8.153,0,0,0,.42,2.837,8.254,8.254,0,0,0,1.3,2.437,7.338,7.338,0,0,0,1.964,1.775,5.935,5.935,0,0,0,2.412.847l395.385,45.335a8.63,8.63,0,0,0,3.459-.287,7.668,7.668,0,0,0,2.83-1.539,7.155,7.155,0,0,0,1.879-2.542,7.459,7.459,0,0,0,.608-3.29,244.766,244.766,0,0,0-21.614-91.442A254.207,254.207,0,0,0,337.33,70.493,235.965,235.965,0,0,0,266.6,21.2,204.843,204.843,0,0,0,186.156,3Z" transform="translate(0 300.004)" fill="#fff"/>
</svg>
